<?xml version="1.0" standalone="no"?>
<!DOCTYPE svg PUBLIC "-//W3C//DTD SVG 20010904//EN"
 "http://www.w3.org/TR/2001/REC-SVG-20010904/DTD/svg10.dtd">
<svg version="1.0" xmlns="http://www.w3.org/2000/svg"
 width="300.000000pt" height="300.000000pt" viewBox="0 0 300.000000 300.000000"
 preserveAspectRatio="xMidYMid meet">
<metadata>
Created by potrace 1.10, written by Peter Selinger 2001-2011
</metadata>
<g transform="translate(0.000000,300.000000) scale(0.100000,-0.100000)"
fill="#3f51b5" stroke="none">
<path d="M1235 2879 c-144 -30 -221 -57 -360 -125 -396 -193 -666 -542 -761
-984 -21 -97 -25 -140 -25 -285 1 -259 43 -433 157 -655 191 -368 535 -632
954 -732 83 -19 121 -22 305 -22 228 0 303 12 466 70 545 195 919 695 945
1264 13 265 -35 492 -148 714 -203 399 -570 675 -1007 756 -143 27 -398 27
-526 -1z m323 -341 c61 -15 121 -56 156 -107 54 -78 56 -104 50 -701 -3 -300
-10 -562 -15 -582 -13 -51 -66 -117 -122 -152 -41 -25 -58 -29 -120 -30 -109
0 -186 47 -239 146 l-23 43 -3 555 c-2 305 0 579 3 607 12 95 98 194 192 219
61 16 65 16 121 2z m-443 -924 c19 -14 20 -30 25 -262 5 -244 5 -248 32 -302
36 -72 96 -133 166 -167 52 -25 67 -28 167 -28 101 0 114 2 163 28 72 38 128
91 160 151 27 50 27 54 32 304 5 252 5 254 29 273 29 24 53 24 82 0 24 -19 24
-19 24 -253 0 -256 -7 -299 -71 -413 -60 -107 -201 -211 -311 -230 l-43 -7 0
-89 0 -89 109 0 c119 0 141 -9 141 -55 0 -54 -7 -55 -320 -55 -287 0 -289 0
-304 22 -20 29 -20 47 1 70 14 15 32 18 125 18 l108 0 0 44 c0 24 3 63 6 88
l6 45 -46 7 c-65 10 -171 68 -229 124 -27 26 -66 76 -86 112 -61 103 -71 163
-71 415 0 211 1 220 22 242 25 26 54 29 83 7z"/>
</g>
</svg>
